<svg id="Layer_1" data-name="Layer 1" xmlns="http://www.w3.org/2000/svg" viewBox="0 0 160.45 101.5"><defs><style>.cls-1{fill:#fff;}</style></defs><title>logo_white</title><path class="cls-1" d="M62.81,9.56A4.69,4.69,0,0,1,59.45,8.2,4.61,4.61,0,0,1,58,4.73a4.46,4.46,0,0,1,1.42-3.39A4.73,4.73,0,0,1,62.81,0,5.27,5.27,0,0,1,64.7.34a4.57,4.57,0,0,1,1.55,1,4.85,4.85,0,0,1,1.05,1.5,4.59,4.59,0,0,1,.39,1.92,4.94,4.94,0,0,1-.37,1.89,4.5,4.5,0,0,1-1.05,1.55,5,5,0,0,1-1.55,1A4.84,4.84,0,0,1,62.81,9.56ZM59.5,77V23.17h6.73V77H59.5Z"/><path class="cls-1" d="M117.2,74.56a28.21,28.21,0,0,1-14.5,3.73,24.92,24.92,0,0,1-10.4-2,22.78,22.78,0,0,1-7.88-5.7,25.3,25.3,0,0,1-5-8.62,32.57,32.57,0,0,1-1.73-10.8A34.67,34.67,0,0,1,79.52,39.8a27.22,27.22,0,0,1,5.36-9.3,25.33,25.33,0,0,1,8.62-6.28,28,28,0,0,1,11.67-2.31,28.5,28.5,0,0,1,12.19,2.57v7.15a22.63,22.63,0,0,0-12.72-3.89,19.26,19.26,0,0,0-8.51,1.81,18.34,18.34,0,0,0-6.28,4.94A22.12,22.12,0,0,0,86,41.8a28.83,28.83,0,0,0-1.34,8.85,29.8,29.8,0,0,0,1.13,8.25,20.46,20.46,0,0,0,3.47,7,16.93,16.93,0,0,0,5.91,4.81,18.56,18.56,0,0,0,8.41,1.79,22.39,22.39,0,0,0,13.66-4.52v6.62Z"/><path class="cls-1" d="M127.08,67.31a21.64,21.64,0,0,0,3.31,2.16,28.8,28.8,0,0,0,3.68,1.63,23.18,23.18,0,0,0,3.81,1,20.92,20.92,0,0,0,3.65.34q12,0,12-9a7.15,7.15,0,0,0-.84-3.55,9.23,9.23,0,0,0-2.42-2.73,20.24,20.24,0,0,0-3.78-2.29q-2.21-1.05-5-2.21a50.73,50.73,0,0,1-6.41-3.1,19.41,19.41,0,0,1-4.42-3.44,12.36,12.36,0,0,1-2.57-4.1,14.27,14.27,0,0,1-.84-5.07,12.84,12.84,0,0,1,1.55-6.36A14.77,14.77,0,0,1,133,25.9a19.39,19.39,0,0,1,6.07-3,25.12,25.12,0,0,1,7.23-1,26.76,26.76,0,0,1,12.19,2.63v7.1a23.64,23.64,0,0,0-13-3.89,15.78,15.78,0,0,0-4.6.63,10.68,10.68,0,0,0-3.55,1.79A8.19,8.19,0,0,0,135,32.92a7.71,7.71,0,0,0-.81,3.55A9,9,0,0,0,134.8,40a7.62,7.62,0,0,0,2,2.71A16.46,16.46,0,0,0,140.24,45q2.13,1.1,5.18,2.37a65.12,65.12,0,0,1,6.73,3.13,20.88,20.88,0,0,1,4.68,3.36,11.86,11.86,0,0,1,2.73,4,13.88,13.88,0,0,1,.89,5.18,13.65,13.65,0,0,1-1.5,6.46,13.94,13.94,0,0,1-4.15,4.78,19.12,19.12,0,0,1-6.23,2.94,28.81,28.81,0,0,1-7.78,1,25.8,25.8,0,0,1-13.71-3.41V67.31Z"/><path class="cls-1" d="M25.07,22.44a21.79,21.79,0,0,0-10.21,3.2,20.59,20.59,0,0,0-8,8.85H7.45v-10h-7v10H31.72Z"/><polygon class="cls-1" points="12.82 36.5 0.45 36.5 0.45 57.99 12.82 36.5"/><path class="cls-1" d="M16.46,68.5l6.28,10.21c0.36,0,.72-0.22,1.08-0.22a22.93,22.93,0,0,0,10.12-2.31,20.81,20.81,0,0,0,7.65-5.68c0.61-.77,1.17-2,1.7-2H16.46Z"/><path class="cls-1" d="M5.41,52.63l-5,9.12V102.5h7v-33H6.84a18.82,18.82,0,0,0,13.29,9Z"/><path class="cls-1" d="M43,48.64L47.45,41a32.08,32.08,0,0,0-.86-3.66,23.93,23.93,0,0,0-4.31-8.3,19.16,19.16,0,0,0-6.88-5.28,21.29,21.29,0,0,0-7.82-1.83Z"/><path class="cls-1" d="M48.09,48.35a34.42,34.42,0,0,0-.24-3.9L35.19,66.5h9.22c0.78-2,1.45-3.7,2-5.49A44.93,44.93,0,0,0,48.09,48.35Z"/></svg>