<svg id="Layer_1" data-name="Layer 1" xmlns="http://www.w3.org/2000/svg" viewBox="0 0 858 966.13"><defs>

<style>
    
    .cls-init {
        transition: fill 0.75s ease-in-out;
        animation: opacity 5s forwards;
        opacity: 0;
    }
    .cls-init:hover {
        fill: #29abe2;
    }
    
    .cls-3{fill:#ed1c24;}
    .cls-2{fill:#f15a24;}
    .cls-1{fill:#f7931e;}
    .cls-7{fill:#fbb03b;}
    
    .cls-4{fill:#fff;}
    .cls-5{
        fill:none;
        stroke:#fff;
        stroke-miterlimit:10;
        stroke-width:3px;
        stroke-dasharray: 1000;
        stroke-dashoffset: 1000;
        animation: draw 2s linear forwards;
    }
    .cls-6{
        fill:#29abe2;
        animation: logo-color 1s linear reverse;
    }
    
    
    @keyframes draw {
        to {
            stroke-dashoffset: 0;
        }
    }
    
    @keyframes opacity {
        25% { opacity: 0;}
        100% { opacity: 0.75; }
    }
    
    @keyframes logo-color {
        to { fill: #fff; }
    }
    
    
    

    
    
    
</style>
    
</defs><title>logo_bg_2</title><polygon class="cls-init cls-1" points="206.71 0.13 484.38 481.5 766.93 0.13 206.71 0.13"/><polygon class="cls-init cls-2" points="768.98 0.66 458.32 530.13 858 530.13 858 0.13 768.14 0.13 768.98 0.66"/><polygon class="cls-init cls-2" points="656.23 966.13 373.95 485.17 97.88 966.13 656.23 966.13"/><polygon class="cls-init cls-3" points="403.63 532.13 658.17 965.64 657.2 966.13 858 966.13 858 532.13 403.63 532.13"/><polygon class="cls-4" points="401.43 530.95 373.86 483.19 401.43 435.43 456.57 435.43 484.14 483.19 456.57 530.95 401.43 530.95"/><path class="cls-6" d="M410.53,487.77v8.62H408.8V476.12h1.74v2.66h0.05a5.51,5.51,0,0,1,2.07-2.22,6,6,0,0,1,5.3-.29,4.94,4.94,0,0,1,1.78,1.36,6.17,6.17,0,0,1,1.11,2.14,9.65,9.65,0,0,1,.39,2.83,10.68,10.68,0,0,1-.43,3.14,7.26,7.26,0,0,1-1.25,2.43,5.67,5.67,0,0,1-2,1.58,5.9,5.9,0,0,1-2.61.56,4.72,4.72,0,0,1-4.38-2.56h-0.05Zm0-3.54a5,5,0,0,0,.32,1.78,4.62,4.62,0,0,0,.89,1.46,4.13,4.13,0,0,0,1.38,1,4.26,4.26,0,0,0,1.78.37,4,4,0,0,0,1.88-.44,4.12,4.12,0,0,0,1.43-1.25,6.09,6.09,0,0,0,.91-2,9.66,9.66,0,0,0,.32-2.58,7.58,7.58,0,0,0-.3-2.2,5,5,0,0,0-.85-1.67,3.67,3.67,0,0,0-1.33-1.06,4,4,0,0,0-1.74-.37,4.61,4.61,0,0,0-2,.4,4.4,4.4,0,0,0-1.48,1.09,4.84,4.84,0,0,0-.94,1.62,5.93,5.93,0,0,0-.33,2v1.84Z"/><path class="cls-6" d="M425,472.61a1.21,1.21,0,0,1-.87-0.35,1.19,1.19,0,0,1-.37-0.9,1.15,1.15,0,0,1,.37-0.87,1.22,1.22,0,0,1,.87-0.35,1.36,1.36,0,0,1,.49.09,1.18,1.18,0,0,1,.4.25,1.25,1.25,0,0,1,.27.39,1.18,1.18,0,0,1,.1.5,1.27,1.27,0,0,1-.09.49,1.16,1.16,0,0,1-.27.4,1.3,1.3,0,0,1-.4.26A1.25,1.25,0,0,1,425,472.61ZM424.17,490V476.12h1.74V490h-1.74Z"/><path class="cls-6" d="M439.06,489.38a7.28,7.28,0,0,1-3.74,1,6.43,6.43,0,0,1-2.68-.51,5.88,5.88,0,0,1-2-1.47,6.53,6.53,0,0,1-1.29-2.22,8.4,8.4,0,0,1-.45-2.79,9,9,0,0,1,.47-2.94,7,7,0,0,1,1.38-2.4,6.54,6.54,0,0,1,2.22-1.62,7.22,7.22,0,0,1,3-.6,7.35,7.35,0,0,1,3.15.66v1.84a5.84,5.84,0,0,0-3.28-1,5,5,0,0,0-2.2.47A4.73,4.73,0,0,0,432,479a5.71,5.71,0,0,0-1,1.88,7.44,7.44,0,0,0-.35,2.28,7.69,7.69,0,0,0,.29,2.13,5.28,5.28,0,0,0,.9,1.8,4.37,4.37,0,0,0,1.53,1.24,4.79,4.79,0,0,0,2.17.46,5.78,5.78,0,0,0,3.53-1.17v1.71Z"/><path class="cls-6" d="M441.61,487.51a5.58,5.58,0,0,0,.85.56,7.43,7.43,0,0,0,.95.42,6,6,0,0,0,1,.26,5.4,5.4,0,0,0,.94.09q3.09,0,3.09-2.32a1.85,1.85,0,0,0-.22-0.92,2.38,2.38,0,0,0-.62-0.71,5.22,5.22,0,0,0-1-.59q-0.57-.27-1.29-0.57a13.09,13.09,0,0,1-1.65-.8,5,5,0,0,1-1.14-.89,3.19,3.19,0,0,1-.66-1.06,3.68,3.68,0,0,1-.22-1.31A3.31,3.31,0,0,1,442,478a3.81,3.81,0,0,1,1.08-1.22,5,5,0,0,1,1.57-.77,6.48,6.48,0,0,1,1.86-.26,6.9,6.9,0,0,1,3.15.68v1.83a6.1,6.1,0,0,0-3.36-1,4.07,4.07,0,0,0-1.19.16,2.76,2.76,0,0,0-.92.46,2.11,2.11,0,0,0-.59.71,2,2,0,0,0-.21.92,2.31,2.31,0,0,0,.16.9,2,2,0,0,0,.51.7,4.25,4.25,0,0,0,.9.6q0.55,0.28,1.34.61a16.8,16.8,0,0,1,1.74.81,5.39,5.39,0,0,1,1.21.87,3.06,3.06,0,0,1,.71,1,3.58,3.58,0,0,1,.23,1.34,3.52,3.52,0,0,1-.39,1.67,3.6,3.6,0,0,1-1.07,1.23,4.93,4.93,0,0,1-1.61.76,7.43,7.43,0,0,1-2,.26,6.66,6.66,0,0,1-3.54-.88v-1.94Z"/><polygon class="cls-init cls-7" points="454.87 434.13 204.63 0.42 205.2 0.13 0 0.13 0 434.13 5.42 434.13 454.87 434.13"/><polygon class="cls-init cls-1" points="5.42 436.13 0 436.13 0 966.13 96.87 966.13 95.89 965.54 399.7 436.13 5.42 436.13"/><line class="cls-5" x1="401.43" y1="435.43" x2="96.75" y2="966.25"/><line class="cls-5" x1="373.85" y1="483.19" x2="657.31" y2="966.13"/><line class="cls-5" x1="401.43" y1="530.94" x2="858" y2="530.94"/><line class="cls-5" x1="456.57" y1="530.94" x2="768.12" y2="0.13"/><line class="cls-5" x1="484.15" y1="483.19" x2="205.5" y2="0.13"/><line class="cls-5" x1="456.57" y1="435.43" y2="435.43"/></svg>